<?xml version="1.0" encoding="UTF-8"?>
<svg width="130px" height="38px" viewBox="0 0 130 38" version="1.1" xmlns="http://www.w3.org/2000/svg" xmlns:xlink="http://www.w3.org/1999/xlink">
    <title>appstore</title>
    <g id="页面-1" stroke="none" stroke-width="1" fill="none" fill-rule="evenodd">
        <g id="Home" transform="translate(-364.000000, -8015.000000)" fill-rule="nonzero">
            <g id="appstore" transform="translate(364.000000, 8015.000000)">
                <rect id="矩形" fill="#000000" x="0" y="0" width="130" height="38" rx="5"></rect>
                <path d="M26.5504135,18.2688469 C26.5200027,15.1108586 29.2210534,13.5710975 29.342457,13.5024591 C27.8148947,11.3447971 25.4477239,11.050588 24.6081154,11.0211826 C22.6152125,10.8152672 20.6931883,12.178441 19.6714344,12.178441 C18.6396235,12.178441 17.0715933,11.0408378 15.3923763,11.0800708 C13.227465,11.1094763 11.204311,12.3255455 10.0914845,14.2184039 C7.79514448,18.0629315 9.50474034,23.7217741 11.6999826,26.8307017 C12.8025923,28.350885 14.0873474,30.0574058 15.7666442,29.9985176 C17.4054732,29.9298791 18.0225484,28.9785361 20.0053143,28.9785361 C21.9678064,28.9785361 22.5444137,29.9985176 24.2641784,29.9592845 C26.0243312,29.9298791 27.1371577,28.4293511 28.1992995,26.88959 C29.4638606,25.1438361 29.9797262,23.427565 30,23.3392714 C29.9696691,23.3098659 26.5807444,22.0643139 26.5504135,18.2688469 Z" id="路径" fill="#FFFFFF"></path>
                <path d="M22.7047094,9.16762691 C23.5482637,8.05693027 24.1300148,6.53865579 23.9749373,5 C22.7434979,5.06113587 21.2114668,5.88651034 20.329124,6.9768096 C19.5437142,7.93465048 18.8455976,9.51406888 19.0298239,10.9915727 C20.406701,11.0935194 21.8222901,10.2579262 22.7047094,9.16762691 Z" id="路径" fill="#FFFFFF"></path>
                <path d="M50,30 L47.7744882,30 L46.5588498,26.1810718 L42.3234928,26.1810718 L41.1666444,30 L39,30 L43.1960605,17 L45.7941154,17 L50,30 Z M46.1862294,24.5889976 L45.0784242,21.1998577 C44.9607668,20.8482127 44.7451002,20.0375719 44.4215231,18.7483609 L44.3823813,18.7483609 C44.2548998,19.3050744 44.04898,20.1157152 43.7646993,21.1998577 L42.676465,24.5889976 L46.1862294,24.5889976 Z" id="形状" fill="#FFFFFF"></path>
                <path d="M61,24.9868746 C61,26.6525257 60.5714688,27.9708235 59.7143296,28.9416067 C58.9448026,29.7999919 57.9902909,30.2291845 56.8506409,30.2291845 C55.6233786,30.2291845 54.7370354,29.7693526 54.2012945,28.8393681 L54.1623302,28.8393681 L54.1623302,34 L52.0779287,34 L52.0779287,23.4335409 C52.0779287,22.380999 52.0487247,21.3080578 52,20.2043966 L53.8311715,20.2043966 L53.9480646,21.7576498 L53.987029,21.7576498 C54.6785504,20.5824699 55.7305114,20 57.142912,20 C58.2435209,20 59.1688285,20.4598319 59.8993912,21.3693365 C60.629877,22.289081 61,23.4949002 61,24.9868746 Z M58.8863945,25.0686333 C58.8863945,24.1182494 58.6818124,23.3313829 58.2727249,22.7080336 C57.8246732,22.0642044 57.2207639,21.7372504 56.4610741,21.7372504 C55.9448539,21.7372504 55.4870418,21.9211671 55.068194,22.268601 C54.6493463,22.626275 54.3766726,23.0963469 54.2500192,23.6685768 C54.1818508,23.9343328 54.1526467,24.1591287 54.1526467,24.332886 L54.1526467,25.9678978 C54.1526467,26.6832457 54.357152,27.286115 54.7759997,27.7766669 C55.1948474,28.2671382 55.7305114,28.5124141 56.4025891,28.5124141 C57.1817996,28.5124141 57.7954691,28.1956195 58.2337606,27.5620303 C58.6721289,26.938681 58.8863945,26.1006951 58.8863945,25.0686333 Z" id="形状" fill="#FFFFFF"></path>
                <path d="M72,24.9868746 C72,26.6525257 71.5710036,27.9708235 70.7129338,28.9416067 C69.9425714,29.7999919 68.9870234,30.2291845 67.8461361,30.2291845 C66.6175415,30.2291845 65.7302359,29.7693526 65.1939135,28.8393681 L65.1549068,28.8393681 L65.1549068,34 L63.0780133,34 L63.0780133,23.4335409 C63.0780133,22.380999 63.0487776,21.3080578 63,20.2043966 L64.8331595,20.2043966 L64.9501795,21.7576498 L64.9891862,21.7576498 C65.6814584,20.5824699 66.7345615,20 68.1484185,20 C69.2502992,20 70.1766114,20.4598319 70.9078902,21.3693365 C71.6294751,22.289081 72,23.4949002 72,24.9868746 Z M69.8840998,25.0686333 C69.8840998,24.1182494 69.6792956,23.3313829 69.2697641,22.7080336 C68.8212259,22.0642044 68.216661,21.7372504 67.4561463,21.7372504 C66.9393657,21.7372504 66.4810566,21.9211671 66.0617541,22.268601 C65.6424517,22.626275 65.369482,23.0963469 65.2426911,23.6685768 C65.1744486,23.9343328 65.1452129,24.1591287 65.1452129,24.332886 L65.1452129,25.9678978 C65.1452129,26.6832457 65.3499402,27.286115 65.7692426,27.7766669 C66.1885451,28.2671382 66.7247906,28.5124141 67.3975979,28.5124141 C68.1776543,28.5124141 68.7919901,28.1956195 69.2307574,27.5620303 C69.6598307,26.938681 69.8840998,26.1006951 69.8840998,25.0686333 Z" id="形状" fill="#FFFFFF"></path>
                <path d="M84,26.9839661 C84,28.1387532 83.6212773,29.0788219 82.8554159,29.8044139 C82.0122798,30.6015251 80.8485683,31 79.3451541,31 C77.9587231,31 76.8435952,30.7139237 76,30.1518499 L76.4751248,28.332911 C77.386584,28.9153843 78.3757005,29.2014606 79.4614487,29.2014606 C80.2372564,29.2014606 80.8485683,29.0175428 81.2846732,28.6496268 C81.7207781,28.2817914 81.93424,27.7810772 81.93424,27.1678838 C81.93424,26.61605 81.759798,26.1459754 81.4009678,25.77814 C81.0421377,25.3999839 80.4507182,25.0525479 79.6167633,24.7255921 C77.3575104,23.8364818 76.2327423,22.5386565 76.2327423,20.8218762 C76.2327423,19.7080492 76.6302863,18.7882994 77.4157342,18.0729474 C78.2011821,17.357676 79.2579331,17 80.5769591,17 C81.7498518,17 82.729175,17.2145572 83.5049827,17.6437523 L82.9916031,19.4218923 C82.2639965,19.0029372 81.4399878,18.7985394 80.5188118,18.7985394 C79.7912052,18.7985394 79.2196783,18.9824572 78.812035,19.3606133 C78.462998,19.6978092 78.2981198,20.1066048 78.2981198,20.5868388 C78.2981198,21.1284325 78.4920717,21.5678677 78.8899218,21.9153036 C79.2388057,22.2423401 79.8592988,22.5897761 80.7705285,22.9679322 C81.8760927,23.4380068 82.7001014,23.98976 83.2241923,24.6233528 C83.7383371,25.2569457 84,26.0438168 84,26.9839661 Z" id="路径" fill="#FFFFFF"></path>
                <path d="M92,21.9278164 L89.5852472,21.9278164 L89.5852472,26.5151494 C89.5852472,27.676818 90.0067549,28.2674391 90.8594974,28.2674391 C91.2493921,28.2674391 91.5784923,28.2379236 91.8354499,28.1690281 L91.8970549,29.7637205 C91.46582,29.9212402 90.900027,30 90.1915698,30 C89.3282897,30 88.650635,29.7440694 88.1675223,29.2419949 C87.6852202,28.7399981 87.4379897,27.8835043 87.4379897,26.6923978 L87.4379897,21.9278164 L86,21.9278164 L86,20.3527752 L87.4379897,20.3527752 L87.4379897,18.6202142 L89.5852472,18 L89.5852472,20.3527752 L92,20.3527752 L92,21.9278164 Z" id="路径" fill="#FFFFFF"></path>
                <path d="M102,24.9100119 C102,26.3800409 101.597364,27.6000284 100.793604,28.5400705 C99.9505624,29.5100166 98.8310391,30 97.4237032,30 C96.0737787,30 95.0010912,29.5300578 94.1965755,28.6000363 C93.3928152,27.6700148 93,26.4900307 93,25.0700258 C93,23.5800346 93.4117005,22.360047 94.2351016,21.4200049 C95.0585026,20.4700211 96.1689609,20 97.5672318,20 C98.9171563,20 99.9989088,20.4700211 100.82231,21.4000426 C101.607185,22.3000024 102,23.4700447 102,24.9100119 Z M99.8840859,24.9799983 C99.8840859,24.1000008 99.7020312,23.3400137 99.3379218,22.7000371 C98.9073359,21.9300294 98.2946953,21.5500359 97.5098204,21.5500359 C96.6864193,21.5500359 96.0639584,21.9300294 95.6333725,22.7000371 C95.2692631,23.3299931 95.0872083,24.1100214 95.0872083,25.0200017 C95.0872083,25.8999992 95.2692631,26.6600652 95.6333725,27.3000418 C96.0737787,28.0700495 96.6954843,28.450043 97.4901796,28.450043 C98.2659896,28.450043 98.8786302,28.0600289 99.3190364,27.2800006 C99.6922108,26.6300034 99.8840859,25.8599957 99.8840859,24.9799983 Z" id="形状" fill="#FFFFFF"></path>
                <path d="M108.990789,22.1063969 C108.786613,22.0654936 108.562481,22.0450017 108.339116,22.0450017 C107.60915,22.0450017 107.04498,22.3313245 106.64584,22.9141354 C106.295824,23.4253858 106.130795,24.0695113 106.130795,24.8466733 L106.130795,30 L104.058336,30 L104.077525,23.2822648 C104.077525,22.1473001 104.048357,21.1247993 104,20.1942703 L105.80918,20.1942703 L105.887473,22.0756589 L105.945809,22.0756589 C106.159963,21.4315334 106.509979,20.910037 106.986644,20.5214964 C107.44412,20.173859 107.949954,20 108.484955,20 C108.679153,20 108.85416,20.010246 109,20.0409033 L109,22.1063969 L108.990789,22.1063969 Z" id="路径" fill="#FFFFFF"></path>
                <path d="M119,24.5590816 C119,24.9398352 118.968401,25.2605031 118.916012,25.5310469 L112.171209,25.5310469 C112.202809,26.4829309 112.518803,27.2043546 113.15079,27.7053587 C113.72041,28.1563177 114.458006,28.3767373 115.353599,28.3767373 C116.3548,28.3767373 117.261203,28.226444 118.083618,27.9258574 L118.431211,29.4087883 C117.471588,29.8095441 116.34399,30 115.037605,30 C113.466784,30 112.234408,29.5590816 111.337984,28.6873646 C110.442391,27.8056069 110,26.6332242 110,25.160334 C110,23.7073668 110.410792,22.5050203 111.253996,21.5430957 C112.1288,20.5110447 113.308787,20 114.794789,20 C116.249192,20 117.356001,20.5110447 118.104407,21.5430957 C118.694817,22.354727 119,23.3566561 119,24.5590816 Z M116.850411,24.0080325 C116.86039,23.3767373 116.724014,22.8256092 116.417999,22.3646886 C116.027996,21.773556 115.427608,21.4729693 114.626813,21.4729693 C113.888386,21.4729693 113.298808,21.7635153 112.834796,22.3446864 C112.455604,22.8056069 112.234408,23.3567351 112.171209,24.0080325 L116.850411,24.0080325 Z" id="形状" fill="#FFFFFF"></path>
                <path d="M45,8.33685487 C45,9.57894387 44.6741063,10.5052574 44.0129887,11.1368084 C43.4077785,11.7157855 42.5418387,12 41.4245728,12 C40.8658664,12 40.3910578,11.9684391 40,11.9157821 L40,5.14736466 C40.5213859,5.05263202 41.0800188,5 41.6759723,5 C42.7374043,5 43.5474368,5.26316008 44.0874829,5.78947194 C44.6926931,6.38947858 45,7.23158253 45,8.33685487 Z M43.9664115,8.36841581 C43.9664115,7.56842079 43.7802495,6.94736798 43.3984484,6.51578877 C43.0260509,6.08420956 42.4766746,5.8736815 41.7504665,5.8736815 C41.4431596,5.8736815 41.1825034,5.89473597 40.968351,5.94736798 L40.968351,11.0947825 C41.0893489,11.1157954 41.3128315,11.1263434 41.6293951,11.1263434 C42.3742635,11.1263434 42.9515567,10.8947027 43.3612013,10.4210395 C43.7709193,9.94737629 43.9664115,9.26316839 43.9664115,8.36841581 Z" id="形状" fill="#FFFFFF"></path>
                <path d="M52,9.45933819 C52,10.1910263 51.7726885,10.8008333 51.3289955,11.2683118 C50.8636131,11.7560772 50.2359019,12 49.4567066,12 C48.70996,12 48.1146975,11.7662607 47.6710045,11.2987822 C47.2273115,10.8313036 47,10.2418636 47,9.53046228 C47,8.78859064 47.2273115,8.17886387 47.6818492,7.71138531 C48.1363869,7.23373928 48.7532534,7 49.5324487,7 C50.2791953,7 50.8853025,7.23373928 51.3398401,7.70120181 C51.7835331,8.15849688 52,8.73783353 52,9.45933819 Z M50.8203197,9.48980849 C50.8203197,9.05280022 50.7228883,8.66662925 50.5172661,8.35158237 C50.2791953,7.9654114 49.943693,7.78250941 49.5,7.78250941 C49.0454623,7.78250941 48.6991153,7.97559489 48.4610445,8.35158237 C48.2554223,8.66662925 48.1579909,9.05280022 48.1579909,9.51017548 C48.1579909,9.95728705 48.2554223,10.3333547 48.4610445,10.6484016 C48.70996,11.0345726 49.0454623,11.2174746 49.4891553,11.2174746 C49.922089,11.2174746 50.2575913,11.0243891 50.5065068,10.6382181 C50.7228883,10.3129877 50.8203197,9.93700025 50.8203197,9.48980849 Z" id="形状" fill="#FFFFFF"></path>
                <path d="M59,7 L57.4933863,12 L56.5094902,12 L55.8843155,9.82381085 C55.7203193,9.28238108 55.5973222,8.74095132 55.494865,8.21015918 L55.4743251,8.21015918 C55.3821379,8.76222656 55.2488708,9.30365633 55.0848746,9.82381085 L54.4187008,12 L53.4246156,12 L52,7 L53.1068932,7 L53.6500699,9.37795215 C53.7832561,9.94057339 53.8960641,10.4713655 53.9779814,10.9808824 L53.9985213,10.9808824 C54.0805194,10.5669366 54.2137056,10.0255068 54.3982417,9.38858977 L55.0848746,7 L55.9560436,7 L56.6119474,9.33548543 C56.7759435,9.90874429 56.8989407,10.4500903 57.0013978,10.9808824 L57.0322078,10.9808824 C57.1039359,10.4713655 57.216663,9.91929815 57.3601192,9.33548543 L57.9442949,7 L59,7 Z" id="路径" fill="#FFFFFF"></path>
                <path d="M65,12 L63.9854774,12 L63.9854774,9.19332434 C63.9854774,8.33057095 63.6762722,7.89398607 63.0676196,7.89398607 C62.7680961,7.89398607 62.5265104,8.00831996 62.3333333,8.24740411 C62.1497618,8.48648826 62.053097,8.76715583 62.053097,9.08940681 L62.053097,12 L61.0386507,12 L61.0386507,8.49690462 C61.0386507,8.07065408 61.0289689,7.60291035 61,7.09355039 L61.8888889,7.09355039 L61.937145,7.86281901 L61.966114,7.86281901 C62.0820659,7.62369385 62.256032,7.42619312 62.4878597,7.27026761 C62.7584143,7.08315863 63.0676196,7 63.4057938,7 C63.8308748,7 64.1883362,7.14552556 64.4685725,7.44698483 C64.8164284,7.81081923 64.9903183,8.35132165 64.9903183,9.06857409 L64.9903183,12 L65,12 Z" id="路径" fill="#FFFFFF"></path>
                <polygon id="路径" fill="#FFFFFF" points="68 12 67 12 67 5 68 5"></polygon>
                <path d="M74,9.45933819 C74,10.1910263 73.7726885,10.8008333 73.3289955,11.2683118 C72.8636131,11.7560772 72.2359019,12 71.4567066,12 C70.70996,12 70.1147829,11.7662607 69.6710045,11.2987822 C69.2273115,10.8313036 69,10.2418636 69,9.53046228 C69,8.78859064 69.2273115,8.17886387 69.6818492,7.71138531 C70.1363869,7.23373928 70.7532534,7 71.5324487,7 C72.2791953,7 72.8853025,7.23373928 73.3398401,7.70120181 C73.7835331,8.15849688 74,8.73783353 74,9.45933819 Z M72.8203197,9.48980849 C72.8203197,9.05280022 72.7229737,8.66662925 72.5173515,8.35158237 C72.2791953,7.9654114 71.943693,7.78250941 71.5,7.78250941 C71.0454623,7.78250941 70.6991153,7.97559489 70.4610445,8.35158237 C70.2554223,8.66662925 70.1580763,9.05280022 70.1580763,9.51017548 C70.1580763,9.95728705 70.2554223,10.3333547 70.4610445,10.6484016 C70.70996,11.0345726 71.0454623,11.2174746 71.4891553,11.2174746 C71.922089,11.2174746 72.2575913,11.0243891 72.5065068,10.6382181 C72.712129,10.3129877 72.8203197,9.93700025 72.8203197,9.48980849 Z" id="形状" fill="#FFFFFF"></path>
                <path d="M79,11.8882221 L78.0309513,11.8882221 L77.9484687,11.3394359 L77.9175581,11.3394359 C77.5876276,11.7764442 77.1133933,12 76.494855,12 C76.0309513,12 75.6701102,11.8576716 75.3814211,11.5629917 C75.1237239,11.2987822 75,10.9735518 75,10.5873808 C75,9.99794085 75.2473665,9.55082927 75.7422622,9.24596589 C76.2370765,8.94102233 76.9381787,8.78859064 77.8350754,8.78859064 L77.8350754,8.70728304 C77.8350754,8.07726948 77.4948957,7.7622226 76.8247041,7.7622226 C76.3504698,7.7622226 75.9174767,7.8841038 75.556717,8.11784309 L75.3401798,7.41666533 C75.7938341,7.14227225 76.3504698,7 77.0103307,7 C78.2783992,7 78.9175174,7.66056405 78.9175174,8.98167612 L78.9175174,10.749996 C78.927848,11.2276581 78.9587587,11.613829 79,11.8882221 Z M77.8763168,10.2418636 L77.8763168,9.49999198 C76.6804002,9.47970518 76.0927726,9.80485536 76.0927726,10.4654194 C76.0927726,10.7195257 76.1649246,10.9024277 76.2989791,11.0243891 C76.4329524,11.1463505 76.6185789,11.2072911 76.8247041,11.2072911 C77.0618213,11.2072911 77.2886891,11.136167 77.484565,10.9837353 C77.6907715,10.8313036 77.8144141,10.6484016 77.8556554,10.4146623 C77.8763168,10.3841118 77.8763168,10.3129877 77.8763168,10.2418636 Z" id="形状" fill="#FFFFFF"></path>
                <path d="M85,11.8995218 L83.9672102,11.8995218 L83.9110994,11.1362681 L83.8777836,11.1362681 C83.5446256,11.7187721 82.9887778,12 82.2005962,12 C81.5667193,12 81.045064,11.7789956 80.6224794,11.3270816 C80.1998948,10.8751675 80,10.3027273 80,9.57956974 C80,8.81631604 80.2226898,8.19363668 80.6777135,7.7216508 C81.1116956,7.27976083 81.6561459,7.05881188 82.3005436,7.05881188 C83.0001753,7.05881188 83.4999123,7.26972093 83.7778362,7.70156309 L83.8006312,7.70156309 L83.8006312,5 L84.9666842,5 L84.9666842,10.634115 C84.9561634,11.0860291 84.9666842,11.5078313 85,11.8995218 Z M83.7892337,9.90097309 L83.7892337,9.10760763 C83.7892337,8.96695405 83.7778362,8.85649146 83.7559179,8.77614062 C83.6892863,8.52510369 83.5446256,8.31416294 83.3333333,8.13341318 C83.1115203,7.96264784 82.8555146,7.87231258 82.5556725,7.87231258 C82.1225671,7.87231258 81.7780116,8.03301425 81.5334035,8.34435393 C81.2887954,8.65561437 81.1555322,9.05736855 81.1555322,9.53939432 C81.1555322,10.0114357 81.2782746,10.3830781 81.5114852,10.6843541 C81.7666141,10.9956938 82.1006488,11.1563162 82.5337542,11.1563162 C82.9116255,11.1563162 83.2228652,11.0258055 83.4560757,10.764705 C83.6778888,10.5337161 83.7892337,10.2424245 83.7892337,9.90097309 Z" id="形状" fill="#FFFFFF"></path>
                <path d="M94,9.45933819 C94,10.1910263 93.7728437,10.8008333 93.3296328,11.2683118 C92.8642186,11.7560772 92.235696,12 91.4568745,12 C90.7096499,12 90.1144321,11.7662607 89.6712212,11.2987822 C89.2271563,10.8313036 89,10.2418636 89,9.53046228 C89,8.78859064 89.2271563,8.17886387 89.6814688,7.71138531 C90.1366354,7.23373928 90.7532024,7 91.5328779,7 C92.2792485,7 92.8855679,7.23373928 93.3398804,7.70120181 C93.7839453,8.15849688 94,8.73783353 94,9.45933819 Z M92.8206661,9.48980849 C92.8206661,9.05280022 92.7233134,8.66662925 92.5175064,8.35158237 C92.2792485,7.9654114 91.9436379,7.78250941 91.500427,7.78250941 C91.0452605,7.78250941 90.6994022,7.97559489 90.4611443,8.35158237 C90.2553373,8.66662925 90.1579846,9.05280022 90.1579846,9.51017548 C90.1579846,9.95728705 90.2553373,10.3333547 90.4611443,10.6484016 C90.7096499,11.0345726 91.0452605,11.2174746 91.4893254,11.2174746 C91.9222886,11.2174746 92.2578992,11.0243891 92.5064048,10.6382181 C92.7122118,10.3129877 92.8206661,9.93700025 92.8206661,9.48980849 Z" id="形状" fill="#FFFFFF"></path>
                <path d="M99,12 L97.9853249,12 L97.9853249,9.19332434 C97.9853249,8.33057095 97.6758148,7.89398607 97.0674671,7.89398607 C96.7678674,7.89398607 96.5262055,8.00831996 96.3333333,8.24740411 C96.1396989,8.48648826 96.0527921,8.76715583 96.0527921,9.08940681 L96.0527921,12 L95.038117,12 L95.038117,8.49690462 C95.038117,8.07065408 95.0289689,7.60291035 95,7.09355039 L95.8888889,7.09355039 L95.9369163,7.86281901 L95.9658853,7.86281901 C96.081761,7.62369385 96.2555746,7.42619312 96.4873261,7.27026761 C96.7678674,7.08315863 97.0674671,7 97.4051839,7 C97.8305698,7 98.1781971,7.14552556 98.4686488,7.44698483 C98.816276,7.81081923 98.9900896,8.35132165 98.9900896,9.06857409 L98.9900896,12 L99,12 Z" id="路径" fill="#FFFFFF"></path>
                <path d="M106.990102,7.9565639 L105.787462,7.9565639 L105.787462,10.2542173 C105.787462,10.8361712 106.006874,11.1271086 106.425076,11.1271086 C106.623866,11.1271086 106.780588,11.1070795 106.91669,11.076917 L106.948034,11.8796667 C106.728622,11.9599417 106.446522,12 106.100907,12 C105.672807,12 105.327193,11.8696125 105.08716,11.6187335 C104.846302,11.3679336 104.720924,10.9364754 104.720924,10.3445464 L104.720924,7.9565639 L104,7.9565639 L104,7.17392251 L104.720924,7.17392251 L104.720924,6.31103781 L105.798185,6 L105.798185,7.17392251 L107,7.17392251 L107,7.9565639 L106.990102,7.9565639 Z" id="路径" fill="#FFFFFF"></path>
                <path d="M112,11.9898046 L110.975366,11.9898046 L110.975366,9.26306989 C110.975366,8.39823112 110.663587,7.97090942 110.048499,7.97090942 C109.570439,7.97090942 109.248653,8.22531154 109.073133,8.72384015 C109.04388,8.82555283 109.023865,8.95785157 109.023865,9.11046073 L109.023865,12 L108,12 L108,5 L109.023865,5 L109.023865,7.88950716 L109.04388,7.88950716 C109.365666,7.36046474 109.82448,7.10610276 110.428791,7.10610276 C110.848345,7.10610276 111.200154,7.24854868 111.482679,7.54360376 C111.834488,7.90989786 112,8.43893225 112,9.15116186 L112,11.9898046 Z" id="路径" fill="#FFFFFF"></path>
                <path d="M118,9.27644493 C118,9.4695298 117.990185,9.63206428 117.961495,9.76420874 L114.956587,9.76420874 C114.966402,10.2418693 115.109853,10.5975688 115.396753,10.8515941 C115.655719,11.0751491 115.981125,11.1870069 116.382786,11.1870069 C116.822952,11.1870069 117.234428,11.1158028 117.597584,10.9633716 L117.750849,11.7052409 C117.320498,11.8983257 116.822952,12 116.239336,12 C115.540959,12 114.995092,11.7865482 114.593431,11.3394381 C114.19177,10.9024312 114,10.3129931 114,9.58130733 C114,8.85972481 114.181955,8.26018346 114.554926,7.77233947 C114.947527,7.26422477 115.473764,7 116.133635,7 C116.784447,7 117.272933,7.25406537 117.607399,7.77233947 C117.86561,8.17887613 118,8.6768234 118,9.27644493 Z M117.042658,9.00205273 C117.052473,8.68700686 116.985277,8.41261466 116.851642,8.17887613 C116.679502,7.88411701 116.411476,7.7316858 116.05738,7.7316858 C115.731974,7.7316858 115.463949,7.87401373 115.263118,8.16869267 C115.100793,8.4024312 114.995092,8.6768234 114.966402,8.99186927 L117.042658,8.99186927 L117.042658,9.00205273 Z" id="形状" fill="#FFFFFF"></path>
            </g>
        </g>
    </g>
</svg>