<?xml version="1.0" encoding="UTF-8"?>
<svg width="130px" height="38px" viewBox="0 0 130 38" version="1.1" xmlns="http://www.w3.org/2000/svg" xmlns:xlink="http://www.w3.org/1999/xlink">
    <title>playstore</title>
    <defs>
        <linearGradient x1="61.3350666%" y1="4.43779587%" x2="25.8769733%" y2="72.1904764%" id="linearGradient-1">
            <stop stop-color="#00A0FF" offset="0%"></stop>
            <stop stop-color="#00A1FF" offset="0.657445%"></stop>
            <stop stop-color="#00BEFF" offset="26.01%"></stop>
            <stop stop-color="#00D2FF" offset="51.22%"></stop>
            <stop stop-color="#00DFFF" offset="76.04%"></stop>
            <stop stop-color="#00E3FF" offset="100%"></stop>
        </linearGradient>
        <linearGradient x1="107.521304%" y1="50.050716%" x2="-130.403147%" y2="50.050716%" id="linearGradient-2">
            <stop stop-color="#FFE000" offset="0%"></stop>
            <stop stop-color="#FFBD00" offset="40.87%"></stop>
            <stop stop-color="#FFA500" offset="77.54%"></stop>
            <stop stop-color="#FF9C00" offset="100%"></stop>
        </linearGradient>
        <linearGradient x1="86.4556962%" y1="30.4836877%" x2="-50.7252863%" y2="136.631718%" id="linearGradient-3">
            <stop stop-color="#FF3A44" offset="0%"></stop>
            <stop stop-color="#C31162" offset="100%"></stop>
        </linearGradient>
        <linearGradient x1="-19.3471804%" y1="-12.2678264%" x2="41.8357415%" y2="34.9808678%" id="linearGradient-4">
            <stop stop-color="#32A071" offset="0%"></stop>
            <stop stop-color="#2DA771" offset="6.85%"></stop>
            <stop stop-color="#15CF74" offset="47.62%"></stop>
            <stop stop-color="#06E775" offset="80.09%"></stop>
            <stop stop-color="#00F076" offset="100%"></stop>
        </linearGradient>
        <linearGradient x1="86.2103056%" y1="30.5470593%" x2="-50.1486419%" y2="101.852054%" id="linearGradient-5">
            <stop stop-color="#CC2E36" offset="0%"></stop>
            <stop stop-color="#9C0E4E" offset="100%"></stop>
        </linearGradient>
        <linearGradient x1="650.072173%" y1="-1065.15591%" x2="66.4631597%" y2="17.5806452%" id="linearGradient-6">
            <stop stop-color="#008DE0" offset="0%"></stop>
            <stop stop-color="#008DE0" offset="0.657445%"></stop>
            <stop stop-color="#00A7E0" offset="26.01%"></stop>
            <stop stop-color="#00B8E0" offset="51.22%"></stop>
            <stop stop-color="#00C4E0" offset="76.04%"></stop>
            <stop stop-color="#00C7E0" offset="100%"></stop>
        </linearGradient>
        <linearGradient x1="1518.99%" y1="-1415.12603%" x2="-1211.9908%" y2="1308.89584%" id="linearGradient-7">
            <stop stop-color="#E0333C" offset="0%"></stop>
            <stop stop-color="#AB0F56" offset="100%"></stop>
        </linearGradient>
        <linearGradient x1="112.829746%" y1="50.0888626%" x2="-287.781457%" y2="50.0888626%" id="linearGradient-8">
            <stop stop-color="#E0C500" offset="0%"></stop>
            <stop stop-color="#E0A600" offset="40.87%"></stop>
            <stop stop-color="#E09100" offset="77.54%"></stop>
            <stop stop-color="#E08900" offset="100%"></stop>
        </linearGradient>
        <linearGradient x1="345.975357%" y1="-291.855662%" x2="-571.001221%" y2="737.763553%" id="linearGradient-9">
            <stop stop-color="#40B8FF" offset="0%"></stop>
            <stop stop-color="#40B9FF" offset="0.657445%"></stop>
            <stop stop-color="#40CEFF" offset="26.01%"></stop>
            <stop stop-color="#40DDFF" offset="51.22%"></stop>
            <stop stop-color="#40E7FF" offset="76.04%"></stop>
            <stop stop-color="#40EAFF" offset="100%"></stop>
        </linearGradient>
        <linearGradient x1="112.662804%" y1="49.978278%" x2="-287.9484%" y2="49.978278%" id="linearGradient-10">
            <stop stop-color="#FFE840" offset="0%"></stop>
            <stop stop-color="#FFCE40" offset="40.87%"></stop>
            <stop stop-color="#FFBC40" offset="77.54%"></stop>
            <stop stop-color="#FFB540" offset="100%"></stop>
        </linearGradient>
        <linearGradient x1="-18.7864209%" y1="14.490183%" x2="42.1397882%" y2="46.3327458%" id="linearGradient-11">
            <stop stop-color="#65B895" offset="0%"></stop>
            <stop stop-color="#62BD95" offset="6.85%"></stop>
            <stop stop-color="#50DB97" offset="47.62%"></stop>
            <stop stop-color="#44ED98" offset="80.09%"></stop>
            <stop stop-color="#40F498" offset="100%"></stop>
        </linearGradient>
    </defs>
    <g id="页面-1" stroke="none" stroke-width="1" fill="none" fill-rule="evenodd">
        <g id="Home" transform="translate(-514.000000, -8015.000000)" fill-rule="nonzero">
            <g id="playstore" transform="translate(514.000000, 8015.000000)">
                <rect id="矩形" fill="#000000" x="0" y="0" width="130" height="38" rx="5"></rect>
                <path d="M45.8994329,9.72807917 C45.8994329,10.5260792 45.661628,11.1625792 45.1860183,11.6280792 C44.6533354,12.1885792 43.9494329,12.4735792 43.0933354,12.4735792 C42.2657744,12.4735792 41.5713841,12.1885792 40.9911402,11.6185792 C40.4108963,11.0485792 40.1255305,10.3360792 40.1255305,9.50007917 C40.1255305,8.65457917 40.4108963,7.95157917 40.9911402,7.38161083 C41.5713841,6.81161083 42.2657744,6.52661083 43.0933354,6.52661083 C43.5023598,6.52661083 43.8923598,6.60261083 44.2633354,6.76411083 C44.634311,6.92561083 44.929189,7.13461083 45.1574817,7.40061083 L44.6533354,7.90411083 C44.2728476,7.45761083 43.759189,7.22961083 43.0933354,7.22961083 C42.4940671,7.22961083 41.9708963,7.43861083 41.5333354,7.86611083 C41.0957744,8.29357917 40.8769939,8.82557917 40.8769939,9.50007917 C40.8769939,10.1745792 41.0957744,10.7255792 41.5333354,11.1435792 C41.9708963,11.5615792 42.4940671,11.7800792 43.0933354,11.7800792 C43.7306524,11.7800792 44.2633354,11.5710792 44.6913841,11.1435792 C44.9672378,10.8680792 45.1289451,10.4785792 45.1669939,9.98457917 L43.0933354,9.98457917 L43.0933354,9.30057917 L45.8613841,9.30057917 C45.8804085,9.45257917 45.8994329,9.59507917 45.8994329,9.72807917 Z" id="路径" fill="#FFFFFF"></path>
                <path d="M45.8995122,9.72768333 L45.8043902,9.72768333 C45.8043902,10.5066833 45.5760976,11.1051833 45.1195122,11.5611833 C44.5963415,12.1026833 43.9304878,12.3781833 43.0934146,12.3781833 C42.2943902,12.3781833 41.6190244,12.1026833 41.0578049,11.5516833 C40.4965854,11.0006833 40.2207317,10.3166833 40.2207317,9.49968333 C40.2207317,8.67318333 40.4965854,7.99868333 41.0578049,7.44769125 C41.6190244,6.89669125 42.284878,6.62119125 43.0934146,6.62119125 C43.4929268,6.62119125 43.8639024,6.69719125 44.2253659,6.84919125 C44.5868293,7.00119125 44.8721951,7.21019125 45.0814634,7.45719125 L45.157561,7.40019125 L45.0909756,7.33369125 L44.5868293,7.83719125 L44.6534146,7.90369125 L44.7295122,7.84669125 C44.33,7.37169125 43.7782927,7.13419125 43.0934146,7.13419125 C42.4656098,7.13419125 41.9234146,7.35269125 41.4668293,7.78969125 C41.0102439,8.22668333 40.7819512,8.80618333 40.7819512,9.49968333 C40.7819512,10.1931833 41.0102439,10.7726833 41.4668293,11.2096833 C41.9234146,11.6466833 42.4656098,11.8651833 43.0934146,11.8651833 C43.7497561,11.8651833 44.3109756,11.6466833 44.7580488,11.2001833 C45.0529268,10.9056833 45.2241463,10.4971833 45.2621951,9.98418333 L45.2717073,9.87968333 L43.1885366,9.87968333 L43.1885366,9.39518333 L45.8614634,9.39518333 L45.8614634,9.30018333 L45.7663415,9.31918333 C45.794878,9.46168333 45.8043902,9.60418333 45.8043902,9.72768333 L45.8995122,9.72768333 L45.9946341,9.72768333 C45.9946341,9.58518333 45.985122,9.43318333 45.9565854,9.28118333 L45.9470732,9.20518333 L43.0078049,9.20518333 L43.0078049,9.98418333 L43.0078049,10.0791833 L45.1765854,10.0791833 L45.1765854,9.98418333 L45.0814634,9.97468333 C45.0434146,10.4496833 44.8912195,10.8106833 44.6343902,11.0671833 C44.2253659,11.4756833 43.7212195,11.6751833 43.112439,11.6751833 C42.5321951,11.6751833 42.0470732,11.4756833 41.6190244,11.0671833 C41.2004878,10.6586833 40.9912195,10.1456833 40.9912195,9.49018333 C40.9912195,8.83468333 41.2004878,8.32168333 41.6190244,7.91319125 C42.0470732,7.50469125 42.5321951,7.30519125 43.112439,7.30519125 C43.7592683,7.30519125 44.2443902,7.52369125 44.6058537,7.95118333 L44.672439,8.02718333 L45.2431707,7.44769125 L45.3002439,7.39069125 L45.2431707,7.32419125 C45.0053659,7.04869125 44.7009756,6.82069125 44.3109756,6.65919125 C43.9304878,6.49769125 43.5214634,6.41219125 43.1029268,6.41219125 C42.2563415,6.41219125 41.5239024,6.70669125 40.9341463,7.29569125 C40.3443902,7.88469125 40.04,8.61618333 40.04,9.48068333 C40.04,10.3451833 40.334878,11.0861833 40.9341463,11.6656833 C41.5239024,12.2546833 42.2563415,12.5491833 43.1029268,12.5491833 C43.987561,12.5491833 44.7104878,12.2546833 45.2717073,11.6751833 L45.205122,11.6086833 L45.2717073,11.6751833 C45.7663415,11.1811833 46.0136585,10.5161833 46.0041463,9.70868333 L45.8995122,9.70868333 L45.8995122,9.72768333 Z" id="路径" fill="#FFFFFF"></path>
                <polygon id="路径" fill="#FFFFFF" points="50.2845549 7.35330875 47.6877256 7.35330875 47.6877256 9.15831667 50.0277256 9.15831667 50.0277256 9.84231667 47.6877256 9.84231667 47.6877256 11.6473167 50.2845549 11.6473167 50.2845549 12.3503167 46.9457744 12.3503167 46.9457744 6.65030875 50.2845549 6.65030875"></polygon>
                <polygon id="路径" fill="#FFFFFF" points="50.2846341 7.35244583 50.2846341 7.25744583 47.5926829 7.25744583 47.5926829 9.25244583 49.9326829 9.25244583 49.9326829 9.74644583 47.5926829 9.74644583 47.5926829 11.7414458 50.1895122 11.7414458 50.1895122 12.2544458 47.0409756 12.2544458 47.0409756 6.74444583 50.1895122 6.74444583 50.1895122 7.35244583 50.2846341 7.35244583 50.2846341 7.25744583 50.2846341 7.35244583 50.3797561 7.35244583 50.3797561 6.64944583 50.3797561 6.55444583 46.8507317 6.55444583 46.8507317 12.4444458 50.3797561 12.4444458 50.3797561 11.6464458 50.3797561 11.5514458 47.7829268 11.5514458 47.7829268 9.93644583 50.1229268 9.93644583 50.1229268 9.15744583 50.1229268 9.06244583 47.7829268 9.06244583 47.7829268 7.44744583 50.3797561 7.44744583 50.3797561 7.35244583"></polygon>
                <polygon id="路径" fill="#FFFFFF" points="53.3760976 12.3503167 52.6436585 12.3503167 52.6436585 7.35330875 51.0456098 7.35330875 51.0456098 6.65030875 54.9646341 6.65030875 54.9646341 7.35330875 53.3760976 7.35330875"></polygon>
                <polygon id="路径" fill="#FFFFFF" points="53.3761768 12.3494458 53.3761768 12.2544458 52.7388598 12.2544458 52.7388598 7.25744583 51.140811 7.25744583 51.140811 6.74444583 54.8695915 6.74444583 54.8695915 7.25744583 53.2810549 7.25744583 53.2810549 12.3494458 53.3761768 12.3494458 53.3761768 12.2544458 53.3761768 12.3494458 53.4712988 12.3494458 53.4712988 7.44744583 55.0598354 7.44744583 55.0598354 6.64944583 55.0598354 6.55444583 50.9505671 6.55444583 50.9505671 7.35244583 50.9505671 7.44744583 52.5486159 7.44744583 52.5486159 12.4444458 53.3761768 12.4444458 53.4712988 12.4444458 53.4712988 12.3494458"></polygon>
                <polygon id="路径" fill="#FFFFFF" points="58.5411402 6.65030875 57.8087012 6.65030875 57.8087012 12.3503167 58.5411402 12.3503167"></polygon>
                <polygon id="路径" fill="#FFFFFF" points="57.8087805 12.3494458 57.9039024 12.3494458 57.9039024 6.74444583 58.4460976 6.74444583 58.4460976 12.2544458 57.8087805 12.2544458 57.8087805 12.3494458 57.9039024 12.3494458 57.8087805 12.3494458 57.8087805 12.4444458 58.5412195 12.4444458 58.6363415 12.4444458 58.6363415 6.55444583 57.8087805 6.55444583 57.7136585 6.55444583 57.7136585 12.4444458 57.8087805 12.4444458"></polygon>
                <polygon id="路径" fill="#FFFFFF" points="61.794311 12.3503167 61.061872 12.3503167 61.061872 7.35330875 59.4638232 7.35330875 59.4638232 6.65030875 63.3828476 6.65030875 63.3828476 7.35330875 61.794311 7.35330875"></polygon>
                <polygon id="路径" fill="#FFFFFF" points="61.7943902 12.3494458 61.7943902 12.2544458 61.1570732 12.2544458 61.1570732 7.25744583 59.5590244 7.25744583 59.5590244 6.74444583 63.2878049 6.74444583 63.2878049 7.25744583 61.6992683 7.25744583 61.6992683 12.3494458 61.7943902 12.3494458 61.7943902 12.2544458 61.7943902 12.3494458 61.8895122 12.3494458 61.8895122 7.44744583 63.4780488 7.44744583 63.4780488 6.64944583 63.4780488 6.55444583 59.3687805 6.55444583 59.3687805 7.35244583 59.3687805 7.44744583 60.9668293 7.44744583 60.9668293 12.4444458 61.7943902 12.4444458 61.8895122 12.4444458 61.8895122 12.3494458"></polygon>
                <path d="M70.8119512,11.6090792 C70.2507317,12.1885792 69.5563415,12.4735792 68.7192683,12.4735792 C67.8821951,12.4735792 67.1878049,12.1885792 66.6265854,11.6090792 C66.0653659,11.0295792 65.7895122,10.3265792 65.7895122,9.50007917 C65.7895122,8.67357917 66.0653659,7.96107917 66.6265854,7.39111083 C67.1878049,6.81161083 67.8821951,6.52661083 68.7192683,6.52661083 C69.5468293,6.52661083 70.2412195,6.81161083 70.8119512,7.39111083 C71.3731707,7.97057917 71.6585366,8.67357917 71.6585366,9.50007917 C71.6490244,10.3360792 71.3731707,11.0390792 70.8119512,11.6090792 Z M67.1687805,11.1340792 C67.5873171,11.5615792 68.1104878,11.7705792 68.7192683,11.7705792 C69.3280488,11.7705792 69.8512195,11.5615792 70.2697561,11.1340792 C70.6882927,10.7065792 70.9070732,10.1650792 70.9070732,9.50007917 C70.9070732,8.83507917 70.6978049,8.29357917 70.2697561,7.86611083 C69.8512195,7.43861083 69.3280488,7.22011083 68.7192683,7.22011083 C68.1104878,7.22011083 67.5873171,7.42911083 67.1687805,7.85661083 C66.7502439,8.29357917 66.5314634,8.83507917 66.5314634,9.50007917 C66.5314634,10.1650792 66.7502439,10.7065792 67.1687805,11.1340792 Z" id="形状" fill="#FFFFFF"></path>
                <path d="M70.8120305,11.6082083 L70.7454451,11.5417083 C70.20325,12.1022083 69.5373963,12.3777083 68.7193476,12.3777083 C67.910811,12.3777083 67.2354451,12.1022083 66.69325,11.5417083 C66.1510549,10.9812083 65.8847134,10.3067083 65.8752012,9.49920833 C65.8752012,8.69170833 66.1415427,8.00770833 66.69325,7.45674792 C67.2354451,6.89624792 67.9012988,6.62074792 68.7193476,6.62074792 C69.5278841,6.62074792 70.1937378,6.89624792 70.7359329,7.45674792 C71.278128,8.01720833 71.5539817,8.69170833 71.5539817,9.49920833 C71.5539817,10.3067083 71.2876402,10.9907083 70.7359329,11.5417083 L70.8120305,11.6082083 L70.8786159,11.6747083 C71.4588598,11.0857083 71.7442256,10.3447083 71.7442256,9.49920833 C71.7442256,8.65370833 71.4493476,7.92220833 70.8691037,7.32374792 C70.2888598,6.72524792 69.5659329,6.43074792 68.7098354,6.43074792 C67.8537378,6.43074792 67.1212988,6.72524792 66.5505671,7.32374792 C65.9703232,7.91274792 65.6849573,8.65370833 65.6849573,9.49920833 C65.6849573,10.3542083 65.9703232,11.0857083 66.5505671,11.6747083 C67.130811,12.2732083 67.8537378,12.5677083 68.7098354,12.5677083 C69.5659329,12.5677083 70.298372,12.2732083 70.8691037,11.6747083 L70.8120305,11.6082083 Z M67.1688598,11.1332083 L67.1022744,11.1997083 C67.5398354,11.6462083 68.0915427,11.8742083 68.7193476,11.8647083 C69.3566646,11.8647083 69.8988598,11.6367083 70.3364207,11.1997083 C70.7739817,10.7532083 71.0022744,10.1832083 71.0022744,9.49920833 C71.0022744,8.81520833 70.7834939,8.24520833 70.3364207,7.79874792 C69.8988598,7.35224792 69.3471524,7.12424792 68.7193476,7.13374792 C68.0820305,7.13374792 67.5398354,7.36174792 67.1022744,7.79874792 C66.6647134,8.24520833 66.4364207,8.81520833 66.4459329,9.49920833 C66.4459329,10.1832083 66.6647134,10.7532083 67.1022744,11.1997083 L67.1688598,11.1332083 L67.2354451,11.0667083 C66.8359329,10.6582083 66.6266646,10.1452083 66.6266646,9.49920833 C66.6266646,8.85320833 66.8264207,8.34020833 67.2354451,7.93170833 C67.6444695,7.52324792 68.1295915,7.32374792 68.7193476,7.32374792 C69.3091037,7.32374792 69.7942256,7.52324792 70.20325,7.93170833 C70.6122744,8.34020833 70.8120305,8.85320833 70.8120305,9.49920833 C70.8120305,10.1452083 70.6122744,10.6582083 70.20325,11.0667083 C69.7942256,11.4752083 69.3091037,11.6747083 68.7193476,11.6747083 C68.1295915,11.6747083 67.6444695,11.4752083 67.2354451,11.0667083 L67.1688598,11.1332083 Z" id="形状" fill="#FFFFFF"></path>
                <polygon id="路径" fill="#FFFFFF" points="72.6858537 12.3503167 72.6858537 6.65030875 73.5704878 6.65030875 76.3480488 11.0868167 76.3765854 11.0868167 76.3480488 9.98481667 76.3480488 6.65030875 77.0804878 6.65030875 77.0804878 12.3503167 76.3195122 12.3503167 73.4182927 7.70480875 73.3802439 7.70480875 73.4182927 8.79731667 73.4182927 12.3503167"></polygon>
                <polygon id="路径" fill="#FFFFFF" points="72.6859329 12.3494458 72.7810549 12.3494458 72.7810549 6.74444583 73.5230061 6.74444583 76.2910549 11.1809458 76.3766646 11.1809458 76.4812988 11.1809458 76.44325 9.98394583 76.44325 6.74444583 76.9854451 6.74444583 76.9854451 12.2544458 76.3671524 12.2544458 73.4659329 7.60894583 73.3803232 7.60894583 73.2852012 7.60894583 73.32325 8.79644583 73.32325 12.2544458 72.6859329 12.2544458 72.6859329 12.3494458 72.7810549 12.3494458 72.6859329 12.3494458 72.6859329 12.4444458 73.418372 12.4444458 73.5134939 12.4444458 73.5134939 8.79644583 73.4754451 7.69444583 73.3803232 7.70394583 73.3803232 7.79894583 73.418372 7.79894583 73.418372 7.70394583 73.3327622 7.75144583 76.2625183 12.4444458 77.0805671 12.4444458 77.175689 12.4444458 77.175689 6.55444583 76.348128 6.55444583 76.2530061 6.55444583 76.2530061 9.98394583 76.2815427 11.0859458 76.3766646 11.0859458 76.3766646 10.9909458 76.348128 10.9909458 76.348128 11.0859458 76.4242256 11.0289458 73.6276402 6.55444583 72.6859329 6.55444583 72.590811 6.55444583 72.590811 12.4444458 72.6859329 12.4444458"></polygon>
                <path d="M65.608622,20.6632125 C63.3732561,20.6632125 61.5469146,22.3637125 61.5469146,24.7007125 C61.5469146,27.0282125 63.3732561,28.7382125 65.608622,28.7382125 C67.8439878,28.7382125 69.6703293,27.0282125 69.6703293,24.7007125 C69.6703293,22.3637125 67.8439878,20.6632125 65.608622,20.6632125 Z M65.608622,27.1517125 C64.3815488,27.1517125 63.3256951,26.1447125 63.3256951,24.7007125 C63.3256951,23.2472125 64.3815488,22.2497125 65.608622,22.2497125 C66.8356951,22.2497125 67.8915488,23.2472125 67.8915488,24.7007125 C67.8915488,26.1447125 66.8261829,27.1517125 65.608622,27.1517125 Z M56.7432561,20.6632125 C54.5078902,20.6632125 52.6815488,22.3637125 52.6815488,24.7007125 C52.6815488,27.0282125 54.5078902,28.7382125 56.7432561,28.7382125 C58.978622,28.7382125 60.8049634,27.0282125 60.8049634,24.7007125 C60.8049634,22.3637125 58.978622,20.6632125 56.7432561,20.6632125 Z M56.7432561,27.1517125 C55.5161829,27.1517125 54.4603293,26.1447125 54.4603293,24.7007125 C54.4603293,23.2472125 55.5161829,22.2497125 56.7432561,22.2497125 C57.9703293,22.2497125 59.0261829,23.2472125 59.0261829,24.7007125 C59.0261829,26.1447125 57.9703293,27.1517125 56.7432561,27.1517125 Z M46.2037439,21.9077125 L46.2037439,23.6177125 L50.3130122,23.6177125 C50.1893537,24.5867125 49.865939,25.2897125 49.3808171,25.7742125 C48.7815488,26.3727125 47.8493537,27.0282125 46.2132561,27.0282125 C43.6830122,27.0282125 41.7044756,24.9952125 41.7044756,22.4682125 C41.7044756,19.9412125 43.6830122,17.9082125 46.2132561,17.9082125 C47.5735,17.9082125 48.5722805,18.4402125 49.3047195,19.1337125 L50.5127683,17.9272125 C49.4854512,16.9487125 48.1252073,16.1982125 46.2037439,16.1982125 C42.7413049,16.1982125 39.8305732,19.0102125 39.8305732,22.4777125 C39.8305732,25.9357125 42.7413049,28.7477125 46.2037439,28.7477125 C48.0776463,28.7477125 49.4854512,28.1397125 50.5888659,26.9902125 C51.7208171,25.8597125 52.0727683,24.2637125 52.0727683,22.9812125 C52.0727683,22.5822125 52.0442317,22.2117125 51.9776463,21.9077125 L46.2037439,21.9077125 Z M89.3036585,23.2377125 C88.9707317,22.3352125 87.9434146,20.6632125 85.8412195,20.6632125 C83.7580488,20.6632125 82.0268293,22.2972125 82.0268293,24.7007125 C82.0268293,26.9617125 83.7390244,28.7382125 86.0409756,28.7382125 C87.8958537,28.7382125 88.9707317,27.6077125 89.4082927,26.9522125 L88.0290244,26.0307125 C87.572439,26.7052125 86.9446341,27.1517125 86.0409756,27.1517125 C85.1373171,27.1517125 84.4904878,26.7337125 84.0814634,25.9262125 L89.4939024,23.6937125 L89.3036585,23.2377125 Z M83.7865854,24.5867125 C83.7390244,23.0287125 84.9946341,22.2307125 85.8982927,22.2307125 C86.6021951,22.2307125 87.2014634,22.5822125 87.4012195,23.0857125 L83.7865854,24.5867125 Z M79.3919512,28.5007125 L81.1707317,28.5007125 L81.1707317,16.6257125 L79.3919512,16.6257125 L79.3919512,28.5007125 Z M76.481061,21.5657125 L76.4144756,21.5657125 C76.0149634,21.0907125 75.2539878,20.6632125 74.2837439,20.6632125 C72.2576463,20.6632125 70.4027683,22.4397125 70.4027683,24.7197125 C70.4027683,26.9807125 72.2576463,28.7477125 74.2837439,28.7477125 C75.2444756,28.7477125 76.0149634,28.3202125 76.4144756,27.8262125 L76.4715488,27.8262125 L76.4715488,28.4057125 C76.4715488,29.9542125 75.6439878,30.7807125 74.3122805,30.7807125 C73.2278902,30.7807125 72.5525244,30.0017125 72.2766707,29.3462125 L70.7261829,29.9922125 C71.1732561,31.0657125 72.3527683,32.3767125 74.3122805,32.3767125 C76.3954512,32.3767125 78.1552073,31.1512125 78.1552073,28.1682125 L78.1552073,20.9102125 L76.4715488,20.9102125 L76.4715488,21.5657125 L76.481061,21.5657125 Z M74.435939,27.1517125 C73.2088659,27.1517125 72.1815488,26.1257125 72.1815488,24.7197125 C72.1815488,23.2947125 73.2088659,22.2592125 74.435939,22.2592125 C75.6439878,22.2592125 76.5952073,23.3042125 76.5952073,24.7197125 C76.6047195,26.1257125 75.6535,27.1517125 74.435939,27.1517125 Z M97.6363415,16.6257125 L93.3843902,16.6257125 L93.3843902,28.5007125 L95.1631707,28.5007125 L95.1631707,23.9977125 L97.6458537,23.9977125 C99.614878,23.9977125 101.545854,22.5727125 101.545854,20.3117125 C101.545854,18.0507125 99.5958537,16.6257125 97.6363415,16.6257125 Z M97.6743902,22.3447125 L95.1536585,22.3447125 L95.1536585,18.2692125 L97.6743902,18.2692125 C98.9965854,18.2692125 99.757561,19.3617125 99.757561,20.3022125 C99.757561,21.2332125 99.0060976,22.3447125 97.6743902,22.3447125 Z M108.651463,20.6442125 C107.367317,20.6442125 106.03561,21.2142125 105.483902,22.4587125 L107.062927,23.1142125 C107.395854,22.4587125 108.023659,22.2402125 108.689512,22.2402125 C109.602683,22.2402125 110.54439,22.7912125 110.553902,23.7697125 L110.553902,23.8932125 C110.230488,23.7127125 109.54561,23.4372125 108.699024,23.4372125 C106.996341,23.4372125 105.274634,24.3682125 105.274634,26.1067125 C105.274634,27.6932125 106.663415,28.7192125 108.223415,28.7192125 C109.412439,28.7192125 110.078293,28.1872125 110.487317,27.5602125 L110.54439,27.5602125 L110.54439,28.4817125 L112.256585,28.4817125 L112.256585,23.9312125 C112.256585,21.8222125 110.677561,20.6442125 108.651463,20.6442125 Z M108.432683,27.1517125 C107.852439,27.1517125 107.043902,26.8572125 107.043902,26.1447125 C107.043902,25.2327125 108.052195,24.8812125 108.927317,24.8812125 C109.707317,24.8812125 110.078293,25.0522125 110.54439,25.2802125 C110.41122,26.3727125 109.46,27.1517125 108.432683,27.1517125 Z M118.496585,20.9007125 L116.460976,26.0497125 L116.403902,26.0497125 L114.292195,20.9007125 L112.380244,20.9007125 L115.547805,28.1017125 L113.740488,32.1012125 L115.595366,32.1012125 L120.475122,20.9007125 L118.496585,20.9007125 Z M102.516098,28.5007125 L104.294878,28.5007125 L104.294878,16.6257125 L102.516098,16.6257125 L102.516098,28.5007125 Z" id="形状" fill="#FFFFFF"></path>
                <path d="M10.2859329,8.32263333 C10.2859329,8.37963333 10.2764207,8.43663333 10.2764207,8.49363333 C10.2764207,8.43663333 10.2764207,8.37963333 10.2859329,8.32263333 Z M10.7900793,7.23014125 C10.4666646,7.51514125 10.2764207,7.99963333 10.2764207,8.63613333 L10.2764207,8.49363333 C10.2764207,8.49363333 10.2764207,8.49363333 10.2764207,8.48413333 C10.2764207,8.48413333 10.2764207,8.48413333 10.2764207,8.49363333 L10.2764207,29.5076333 L10.2764207,29.3651333 C10.2764207,29.9541333 10.438128,30.4101333 10.7139817,30.6951333 L10.7805671,30.7616333 L22.575689,19.0006333 L10.7900793,7.23014125 Z" id="形状" fill="url(#linearGradient-1)"></path>
                <path d="M26.5042256,15.0757083 L22.575689,18.9992083 L26.5042256,22.9227083 L26.5898354,23.0082083 L26.5327622,23.0367083 L26.5898354,23.0082083 L31.2412988,20.3672083 C31.59325,20.1677083 31.8500793,19.9397083 32.0117866,19.6927083 C31.8500793,19.9397083 31.59325,20.1677083 31.2412988,20.3672083 L26.5898354,23.0082083 L26.5042256,22.9227083 L31.250811,20.2342083 C31.8500793,19.8922083 32.1925183,19.4552083 32.2495915,18.9992083 C32.1925183,18.5527083 31.8500793,18.1062083 31.250811,17.7642083 L26.5042256,15.0757083 Z" id="路径" fill="url(#linearGradient-2)"></path>
                <path d="M10.7899207,30.913 C11.0182134,31.1125 11.3035793,31.2265 11.6269939,31.2265 C11.6555305,31.2265 11.6840671,31.2265 11.7126037,31.2265 C11.6840671,31.2265 11.6555305,31.2265 11.6269939,31.2265 C11.3035793,31.217 11.0182134,31.1125 10.7899207,30.913 Z M22.5755305,19 L10.7899207,30.7705 L10.7233354,30.837 L10.7899207,30.7705 C11.0182134,30.97 11.3035793,31.0745 11.6269939,31.0745 C11.9504085,31.0745 12.311872,30.97 12.6923598,30.7515 L26.5040671,22.914 L22.5755305,19 Z" id="形状" fill="url(#linearGradient-3)"></path>
                <path d="M11.6269939,6.925785 C11.2940671,6.925785 11.0087012,7.030285 10.7899207,7.229785 L22.5755305,19.0003167 L26.5040671,15.0768167 L12.6923598,7.239285 C12.311872,7.020785 11.9504085,6.925785 11.6269939,6.925785 Z M11.6269939,6.783285 C11.5889451,6.783285 11.5413841,6.783285 11.5033354,6.792785 C11.5413841,6.783285 11.5889451,6.783285 11.6269939,6.783285 C11.9504085,6.783285 12.311872,6.887785 12.6923598,7.106285 L26.5896768,14.9913167 L12.6923598,7.106285 C12.311872,6.887785 11.9504085,6.783285 11.6269939,6.783285 Z" id="形状" fill="url(#linearGradient-4)"></path>
                <path d="M12.7126037,30.9043708 C12.3533804,31.1563708 12.0232833,31.2883708 11.7126037,31.3003708 C12.0232833,31.2763708 12.3630891,31.1443708 12.7126037,30.9043708 Z" id="形状" fill="#000000"></path>
                <path d="M26.5040671,22.9242917 L12.6923598,30.7617917 C12.311872,30.9802917 11.9504085,31.0847917 11.6269939,31.0847917 C11.2940671,31.0847917 11.0087012,30.9802917 10.7899207,30.7807917 L10.7233354,30.8472917 C10.7233354,30.8472917 10.7233354,30.8472917 10.7328476,30.8567917 L10.7899207,30.9137917 C10.7899207,30.9137917 10.7899207,30.9137917 10.7994329,30.9232917 C11.0277256,31.1227917 11.3130915,31.2367917 11.6365061,31.2367917 C11.6650427,31.2367917 11.6935793,31.2367917 11.7221159,31.2367917 C12.0169939,31.2177917 12.3499207,31.1132917 12.701872,30.9232917 L26.599189,23.0382917 L26.5040671,22.9242917 Z" id="路径" fill="url(#linearGradient-5)"></path>
                <path d="M10.2764207,29.5066042 C10.2764207,30.0956042 10.438128,30.5516042 10.7139817,30.8461042 C10.438128,30.5516042 10.2764207,30.0956042 10.2764207,29.5066042 Z" id="路径" fill="#000000"></path>
                <path d="M10.2764207,29.3643417 L10.2764207,29.5068417 C10.2764207,30.0958417 10.438128,30.5518417 10.7139817,30.8368417 L10.7805671,30.7703417 L10.7139817,30.7038417 C10.438128,30.4093417 10.2764207,29.9533417 10.2764207,29.3643417 Z" id="路径" fill="url(#linearGradient-6)"></path>
                <path d="M10.7899207,30.7698667 L10.7233354,30.8363667 L10.7899207,30.7698667 Z" id="路径" fill="url(#linearGradient-7)"></path>
                <path d="M32.24,19 C32.24,19.2375 32.1639024,19.475 32.0117073,19.6935 C32.1639024,19.475 32.24,19.2375 32.24,19 Z" id="路径" fill="#000000"></path>
                <path d="M32.2399207,19 C32.1828476,19.4465 31.8404085,19.893 31.2411402,20.235 L26.4945549,22.9235 L26.5801646,23.009 L31.231628,20.368 C31.5835793,20.1685 31.8404085,19.9405 32.0021159,19.6935 C32.1638232,19.475 32.2399207,19.2375 32.2399207,19 Z" id="路径" fill="url(#linearGradient-8)"></path>
                <path d="M26.5898354,14.9910792 L31.2412988,17.6320792 C31.9071524,18.0120792 32.2400793,18.5060792 32.2400793,19.0000792 C32.2400793,18.5060792 31.9071524,18.0025792 31.2412988,17.6320792 L26.5898354,14.9910792 Z M11.5034939,6.79256333 C10.8186159,6.84956333 10.3430061,7.39106333 10.2859329,8.30307917 C10.3144695,7.80906333 10.4761768,7.41956333 10.7234939,7.16306333 C10.7425183,7.14406333 10.7615427,7.12506333 10.7900793,7.10606333 L10.7995915,7.09656333 C10.9803232,6.91606333 11.2276402,6.81156333 11.5034939,6.79256333 Z" id="形状" fill="#404040"></path>
                <path d="M10.8404207,7.163665 C10.5284207,7.420165 10.3364207,7.809665 10.2884207,8.30363333 C10.2884207,8.30363333 10.2884207,8.30363333 10.2884207,8.31313333 C10.2884207,8.31313333 10.2884207,8.31313333 10.2884207,8.32263333 C10.2884207,8.37963333 10.2764207,8.43663333 10.2764207,8.49363333 C10.2764207,8.49363333 10.2764207,8.49363333 10.2764207,8.50313333 L10.2764207,8.64563333 C10.2764207,8.00913333 10.5164207,7.524665 10.9244207,7.239665 L10.8404207,7.163665 Z" id="形状" fill="url(#linearGradient-9)"></path>
                <path d="M26.5896768,14.9906042 L26.5040671,15.0761042 L31.2506524,17.7646042 C31.8499207,18.1066042 32.1923598,18.5436042 32.2494329,18.9996042 C32.2494329,18.5056042 31.9165061,18.0116042 31.2506524,17.6316042 L26.5896768,14.9906042 Z" id="路径" fill="url(#linearGradient-10)"></path>
                <path d="M11.6269939,6.783285 C11.5889451,6.783285 11.5413841,6.783285 11.5033354,6.792785 C11.2274817,6.811785 10.9801646,6.916285 10.7899207,7.096785 C10.7899207,7.096785 10.7804085,7.096785 10.7804085,7.106285 C10.7613841,7.125285 10.7423598,7.144285 10.7138232,7.163285 L10.7804085,7.229785 C11.0087012,7.030285 11.2940671,6.925785 11.6174817,6.925785 C11.9408963,6.925785 12.3023598,7.030285 12.6828476,7.248785 L26.4945549,15.0863167 L26.5801646,15.0008167 L12.6828476,7.115785 C12.311872,6.887785 11.9504085,6.783285 11.6269939,6.783285 Z" id="路径" fill="url(#linearGradient-11)"></path>
            </g>
        </g>
    </g>
</svg>